<svg id="Logo" xmlns="http://www.w3.org/2000/svg" xmlns:xlink="http://www.w3.org/1999/xlink" viewBox="0 0 3500 1280"><defs><style>.cls-1{fill:#fff;fill-rule:evenodd;}.cls-2{fill:url(#radial-gradient);}.cls-3{fill:#d70f34;}</style><radialGradient id="radial-gradient" cx="1750" cy="491.69" r="213.5" gradientUnits="userSpaceOnUse"><stop offset="0" stop-color="#009b3c"/><stop offset="1" stop-color="#009b3c"/></radialGradient></defs><path id="Mountains" class="cls-1" d="M2088.83,876.8q-65.67,46.83-124.95,86.52-47.2,31.63-91.14,59.41,49.3,33.48,104.48,70,69.58,46.08,145.5,95.13l41.73,26.95-47.6,8.7c-56,10.25-146.81-14.08-270.83-75.55-115.24-57.11-260.68-146.8-435.12-271.19-32-22.76-64.87-35.58-100-36.28-35.51-.72-73.86,10.86-116.41,37h0Q912.41,1061,656.34,1159.25q-256.92,98.54-488.26,111.4L0,1280l163-47.19q226.52-65.61,473.58-194.88,247.29-129.38,515.8-323,89-63.86,167.69-63.59,80.06.15,148,65.11h0q46.7,44.37,119,100.92,69.24,54.14,162.87,120.36,93.57-66.24,162.75-120.4,72.25-56.58,119-100.88h0q68-64.83,148-65.11,78.79-.12,167.67,63.59,268.53,193.62,515.87,323,247.14,129.3,473.76,194.88L3500,1280l-168.16-9.35q-231.53-12.84-488.49-111.41Q2587.27,1061,2305.26,877.48h0c-42.59-26.1-80.93-37.68-116.45-37-35.12.7-68,13.52-100,36.28"/><g id="Star"><path class="cls-2" d="M1888.67,693.76,1750,598.38l-138.68,95.38,53-154.34-138.64-95.35H1697l53-154.44,53,154.44h171.36l-138.64,95.35ZM1779.56,578l43,29.59-16.43-47.87Zm-85.72-18.28-16.42,47.87,43-29.59Zm11.3-32.91L1750,557.71l44.87-30.86L1777.75,477h-55.5ZM1814.29,477l10.14,29.55,43-29.55Zm-181.68,0,43,29.55L1685.72,477Zm100.93-32.9h32.92l-16.46-48Z"/></g><g id="Crescent"><path class="cls-3" d="M1537.73,168.31c57.29-32.39,118.9-51.07,183.11-55.51a422.94,422.94,0,0,1,188.4,30c62.69,25.2,119.14,64.43,167.8,116.61,71.62,76.81,119.49,172.73,139.54,279q.32-18.48-.5-37.06a578,578,0,0,0-39.9-188.43,536.5,536.5,0,0,0-106.46-168.61c-47.59-51-102.78-89.39-164-114A413.67,413.67,0,0,0,1721.47,1c-62.78,4.35-123,22.6-179,54.24-44.68,25.26-85.31,58.43-120.77,98.59-10.69,12.11-21.06,25-30.83,38.42-72.65,99.59-109.79,219.4-107.47,346.59,15.94-83.87,49.72-162.54,99.34-230.56C1425.93,249.14,1478.06,202,1537.73,168.31Z"/></g></svg>