<svg id="Logo" xmlns="http://www.w3.org/2000/svg" viewBox="0 0 440 352"><defs><style>.cls-1{fill:#009b3c;}.cls-2{fill:#fff;}.cls-3{fill:#d70f34;}</style></defs><path id="Star" class="cls-1" d="M261.37,251.84,220,223.76l-41.37,28.08,15.8-45.44-41.36-28.08h51.12L220,132.85l15.81,45.47h51.12L245.57,206.4Zm-32.55-34.07,12.83,8.72-4.9-14.1Zm-25.57-5.38-4.9,14.1,12.83-8.72Zm3.37-9.69L220,211.79l13.39-9.09L228.28,188H211.72ZM239.18,188l3,8.7L255,188ZM185,188l12.82,8.7,3-8.7Zm30.11-9.69h9.82L220,164.2Z"/><path id="Swoosh" class="cls-2" d="M15.06,291.68a66.85,66.85,0,0,0,19.85,18.37,83.62,83.62,0,0,0,11.59,6,92.54,92.54,0,0,0,12.16,4.2c16.42,4.51,33.4,4.52,50.14,2.11q6.28-.94,12.53-2.29c4.16-.93,8.31-2,12.43-3.14a255.2,255.2,0,0,0,24.47-8.29c4-1.61,8-3.26,12.06-5.05s8.12-3.63,12.2-5.54c8.15-3.79,16.37-7.77,24.73-11.78,16.72-8,34.09-16.12,52.69-22.58a236.45,236.45,0,0,1,28.75-8.09c2.46-.54,4.94-1,7.44-1.43s5-.8,7.58-1.12c5.08-.61,10.16-1,15.26-1.18a149.25,149.25,0,0,1,30.5,2.13,118,118,0,0,1,29.27,9A99.75,99.75,0,0,1,392,270.58a80.74,80.74,0,0,1,11.69,9.67,66.19,66.19,0,0,1,15.79,24.52,86.45,86.45,0,0,0-22.18-15.9A84.57,84.57,0,0,0,385.22,284a89.29,89.29,0,0,0-12.49-3.08c-16.82-3-34.07-2.14-50.76.91-4.17.8-8.32,1.67-12.41,2.77q-3.07.78-6.1,1.69c-2,.63-4.09,1.23-6.13,1.91-8.16,2.66-16.26,5.8-24.35,9.24-16.19,6.9-32.39,15-49.27,23.06-8.45,4-17.06,8-25.94,11.75-4.44,1.85-8.93,3.7-13.51,5.4s-9.3,3.39-14.06,4.86c-19,5.93-39.09,9.64-59.57,9.47A137.7,137.7,0,0,1,80,348.43a106.84,106.84,0,0,1-28.75-11.25c-1.11-.64-2.21-1.29-3.29-2s-2.16-1.35-3.2-2.1l-3.11-2.21c-1-.77-2-1.58-3-2.36a78.74,78.74,0,0,1-10.79-10.65,66.12,66.12,0,0,1-8.24-12.42A47.12,47.12,0,0,1,15.06,291.68Z"/><path id="Crescent" class="cls-3" d="M15.06,291.68a194.83,194.83,0,0,1-8.27-24.31,197.55,197.55,0,0,1-5-25.39c-.56-4.3-1-8.62-1.29-12.95-.18-2.17-.18-4.34-.27-6.52L0,216l.13-6.54c.07-2.18,0-4.38.26-6.55.36-4.36.54-8.75,1.19-13.09a207.75,207.75,0,0,1,12.94-51.19c1.68-4.1,3.26-8.26,5.25-12.24,1-2,1.87-4,2.88-6l3.14-5.89,1.57-2.95,1.71-2.87,3.43-5.75c1.16-1.9,2.44-3.73,3.67-5.59l1.88-2.78L39,93.13l1-1.35A220.75,220.75,0,0,1,76.42,52.32a224,224,0,0,1,45.19-29.64A221.48,221.48,0,0,1,227,.09a220.88,220.88,0,0,1,180.7,103.58c2.31,3.83,4.71,7.6,6.72,11.59,1,2,2.13,3.92,3.13,5.92l2.85,6,1.43,3c.45,1,.86,2.06,1.29,3.08l2.55,6.17c.84,2,1.53,4.17,2.28,6.26s1.52,4.17,2.13,6.3l1.89,6.38c.31,1.06.64,2.11.92,3.18l.79,3.23,1.56,6.45c.48,2.15.83,4.34,1.24,6.5A218.93,218.93,0,0,1,439.68,204c1.94,35-4.89,70.23-20.17,100.79A233.32,233.32,0,0,0,428.27,255a218.89,218.89,0,0,0,.21-25c-.08-2.07-.25-4.14-.43-6.2l-.5-6.18c-.17-2.05-.52-4.1-.77-6.14s-.5-4.09-.85-6.12a213.57,213.57,0,0,0-5.32-24c-.58-2-1.09-3.94-1.7-5.89L417,169.72l-1-2.9c-.34-1-.73-1.9-1.09-2.85l-2.22-5.69a214,214,0,0,0-23.43-42.46c-1.1-1.68-2.38-3.25-3.59-4.86s-2.42-3.22-3.67-4.8l-3.89-4.62-1.94-2.32c-.67-.75-1.37-1.48-2.05-2.22l-4.07-4.44c-1.36-1.48-2.84-2.85-4.25-4.28l-2.13-2.13-1.07-1.06-1.11-1L357,80c-1.45-1.38-3-2.63-4.58-3.9l-4.65-3.81L343,68.73l-2.39-1.81c-.8-.61-1.65-1.14-2.47-1.72l-5-3.38c-.81-.58-1.67-1.1-2.52-1.62l-2.56-1.57c-1.72-1-3.38-2.14-5.13-3.09l-5.26-2.89a201,201,0,0,0-44.39-17.6c-3.81-1.15-7.73-1.9-11.61-2.81-1.93-.49-3.91-.74-5.87-1.11l-5.89-1L244,29.39c-2-.24-3.95-.54-5.94-.63-4-.26-7.95-.68-11.94-.68a207.43,207.43,0,0,0-47.58,3.84,204.9,204.9,0,0,0-23.14,6c-1.89.64-3.81,1.19-5.67,1.89L144.13,42l-2.8,1.07-2.75,1.18-5.5,2.37a215.13,215.13,0,0,0-41,24.8c-.82.58-1.59,1.22-2.36,1.86l-2.32,1.92c-1.54,1.29-3.15,2.5-4.63,3.86l-4.47,4c-.74.68-1.51,1.33-2.22,2l-2.15,2.12-4.32,4.23-4.1,4.43c-2.81,2.9-5.3,6.08-7.93,9.15A213.65,213.65,0,0,0,31.4,145.93c-1,1.79-1.75,3.67-2.59,5.53L26.31,157l-2.21,5.71c-.74,1.9-1.54,3.79-2.15,5.74-1.3,3.87-2.71,7.73-3.74,11.7-.55,2-1.14,3.95-1.67,5.93l-1.4,6c-1.05,4-1.66,8.07-2.44,12.13-.43,2-.63,4.08-.91,6.13l-.85,6.16-.54,6.2c-.16,2.07-.42,4.14-.49,6.22q-.35,6.22-.35,12.5A234.17,234.17,0,0,0,15.06,291.68Z"/></svg>